name ./resultDataOpenSim/trcMotMarkerGrf/sub10/grf-05-03.mot
datacolumns 19
datarows 30
range 0.51200000 0.62800000
endheader

                time	     ground_force_vx	     ground_force_vy	     ground_force_vz	     ground_force_px	     ground_force_py	     ground_force_pz	   l_ground_force_vx	   l_ground_force_vy	   l_ground_force_vz	   l_ground_force_px	   l_ground_force_py	   l_ground_force_pz	     ground_torque_x	     ground_torque_y	     ground_torque_z	   l_ground_torque_x	   l_ground_torque_y	   l_ground_torque_z	
          0.51200000	         42.87241577	        394.92899837	        -18.64960160	         -0.80085259	          0.00000000	         -0.03344121	          0.00000000	          0.00000000	          0.00000000	          0.00000000	          0.00000000	          0.00000000	          0.00000000	          3.50730769	          0.00000000	          0.00000000	          0.00000000	          0.00000000	
          0.51600000	         44.92316829	        399.09966341	        -18.66752966	         -0.79980876	          0.00000000	         -0.03324630	          0.00000000	          0.00000000	          0.00000000	          0.00000000	          0.00000000	          0.00000000	          0.00000000	          3.63830317	          0.00000000	          0.00000000	          0.00000000	          0.00000000	
          0.52000000	         46.59113983	        403.77391343	        -18.83241317	         -0.79863300	          0.00000000	         -0.03305606	          0.00000000	          0.00000000	          0.00000000	          0.00000000	          0.00000000	          0.00000000	          0.00000000	          3.75384026	          0.00000000	          0.00000000	          0.00000000	          0.00000000	
          0.52400000	         48.01492463	        408.78420895	        -19.22700176	         -0.79732849	          0.00000000	         -0.03285447	          0.00000000	          0.00000000	          0.00000000	          0.00000000	          0.00000000	          0.00000000	          0.00000000	          3.85094511	          0.00000000	          0.00000000	          0.00000000	          0.00000000	
          0.52800000	         49.35584463	        414.00449182	        -19.89085762	         -0.79590510	          0.00000000	         -0.03263098	          0.00000000	          0.00000000	          0.00000000	          0.00000000	          0.00000000	          0.00000000	          0.00000000	          3.93141112	          0.00000000	          0.00000000	          0.00000000	          0.00000000	
          0.53200000	         50.74344201	        419.40849757	        -20.80740026	         -0.79439050	          0.00000000	         -0.03238303	          0.00000000	          0.00000000	          0.00000000	          0.00000000	          0.00000000	          0.00000000	          0.00000000	          4.00086153	          0.00000000	          0.00000000	          0.00000000	          0.00000000	
          0.53600000	         52.24076671	        425.07579754	        -21.90595656	         -0.79281812	          0.00000000	         -0.03211272	          0.00000000	          0.00000000	          0.00000000	          0.00000000	          0.00000000	          0.00000000	          0.00000000	          4.06698412	          0.00000000	          0.00000000	          0.00000000	          0.00000000	
          0.54000000	         53.83778490	        431.14906078	        -23.08136260	         -0.79121508	          0.00000000	         -0.03182565	          0.00000000	          0.00000000	          0.00000000	          0.00000000	          0.00000000	          0.00000000	          0.00000000	          4.13758290	          0.00000000	          0.00000000	          0.00000000	          0.00000000	
          0.54400000	         55.46892811	        437.77128111	        -24.22284773	         -0.78958746	          0.00000000	         -0.03152784	          0.00000000	          0.00000000	          0.00000000	          0.00000000	          0.00000000	          0.00000000	          0.00000000	          4.21890859	          0.00000000	          0.00000000	          0.00000000	          0.00000000	
          0.54800000	         57.04705419	        445.03895351	        -25.24273233	         -0.78792617	          0.00000000	         -0.03122647	          0.00000000	          0.00000000	          0.00000000	          0.00000000	          0.00000000	          0.00000000	          0.00000000	          4.31442963	          0.00000000	          0.00000000	          0.00000000	          0.00000000	
          0.55200000	         58.50230244	        452.99446086	        -26.09869519	         -0.78622038	          0.00000000	         -0.03093143	          0.00000000	          0.00000000	          0.00000000	          0.00000000	          0.00000000	          0.00000000	          0.00000000	          4.42403359	          0.00000000	          0.00000000	          0.00000000	          0.00000000	
          0.55600000	         59.81162869	        461.65351516	        -26.80392706	         -0.78446243	          0.00000000	         -0.03064814	          0.00000000	          0.00000000	          0.00000000	          0.00000000	          0.00000000	          0.00000000	          0.00000000	          4.54368671	          0.00000000	          0.00000000	          0.00000000	          0.00000000	
          0.56000000	         61.01081522	        471.03328251	        -27.42164503	         -0.78264935	          0.00000000	         -0.03037251	          0.00000000	          0.00000000	          0.00000000	          0.00000000	          0.00000000	          0.00000000	          0.00000000	          4.66570065	          0.00000000	          0.00000000	          0.00000000	          0.00000000	
          0.56400000	         62.19081004	        481.14713336	        -28.04718134	         -0.78078481	          0.00000000	         -0.03009592	          0.00000000	          0.00000000	          0.00000000	          0.00000000	          0.00000000	          0.00000000	          0.00000000	          4.77975117	          0.00000000	          0.00000000	          0.00000000	          0.00000000	
          0.56800000	         63.48191353	        491.97563690	        -28.78629955	         -0.77887815	          0.00000000	         -0.02981242	          0.00000000	          0.00000000	          0.00000000	          0.00000000	          0.00000000	          0.00000000	          0.00000000	          4.87457162	          0.00000000	          0.00000000	          0.00000000	          0.00000000	
          0.57200000	         65.02735235	        503.44804423	        -29.73551165	         -0.77694768	          0.00000000	         -0.02952259	          0.00000000	          0.00000000	          0.00000000	          0.00000000	          0.00000000	          0.00000000	          0.00000000	          4.93993622	          0.00000000	          0.00000000	          0.00000000	          0.00000000	
          0.57600000	         66.95431232	        515.44859681	        -30.96255909	         -0.77503041	          0.00000000	         -0.02923057	          0.00000000	          0.00000000	          0.00000000	          0.00000000	          0.00000000	          0.00000000	          0.00000000	          4.96838962	          0.00000000	          0.00000000	          0.00000000	          0.00000000	
          0.58000000	         69.35405982	        527.83989394	        -32.48723629	         -0.77316864	          0.00000000	         -0.02894067	          0.00000000	          0.00000000	          0.00000000	          0.00000000	          0.00000000	          0.00000000	          0.00000000	          4.95630486	          0.00000000	          0.00000000	          0.00000000	          0.00000000	
          0.58400000	         72.27373277	        540.49328986	        -34.27188449	         -0.77139155	          0.00000000	         -0.02865908	          0.00000000	          0.00000000	          0.00000000	          0.00000000	          0.00000000	          0.00000000	          0.00000000	          4.90417443	          0.00000000	          0.00000000	          0.00000000	          0.00000000	
          0.58800000	         75.71803192	        553.31929996	        -36.22838566	         -0.76971425	          0.00000000	         -0.02839364	          0.00000000	          0.00000000	          0.00000000	          0.00000000	          0.00000000	          0.00000000	          0.00000000	          4.81633720	          0.00000000	          0.00000000	          0.00000000	          0.00000000	
          0.59200000	         79.66321296	        566.27828999	        -38.23739537	         -0.76814716	          0.00000000	         -0.02815263	          0.00000000	          0.00000000	          0.00000000	          0.00000000	          0.00000000	          0.00000000	          0.00000000	          4.70043507	          0.00000000	          0.00000000	          0.00000000	          0.00000000	
          0.59600000	         84.08013494	        579.35572845	        -40.17146558	         -0.76670403	          0.00000000	         -0.02795046	          0.00000000	          0.00000000	          0.00000000	          0.00000000	          0.00000000	          0.00000000	          0.00000000	          4.56676392	          0.00000000	          0.00000000	          0.00000000	          0.00000000	
          0.60000000	         88.95247071	        592.52516278	        -41.91688663	         -0.76539962	          0.00000000	         -0.02780468	          0.00000000	          0.00000000	          0.00000000	          0.00000000	          0.00000000	          0.00000000	          0.00000000	          4.42749581	          0.00000000	          0.00000000	          0.00000000	          0.00000000	
          0.60400000	         94.27956130	        605.73179744	        -43.39001899	         -0.76425640	          0.00000000	         -0.02773287	          0.00000000	          0.00000000	          0.00000000	          0.00000000	          0.00000000	          0.00000000	          0.00000000	          4.29570272	          0.00000000	          0.00000000	          0.00000000	          0.00000000	
          0.60800000	        100.06661879	        618.89473115	        -44.53855692	         -0.76327905	          0.00000000	         -0.02774107	          0.00000000	          0.00000000	          0.00000000	          0.00000000	          0.00000000	          0.00000000	          0.00000000	          4.18422988	          0.00000000	          0.00000000	          0.00000000	          0.00000000	
          0.61200000	        106.31128745	        631.91078668	        -45.32156301	         -0.76246871	          0.00000000	         -0.02783286	          0.00000000	          0.00000000	          0.00000000	          0.00000000	          0.00000000	          0.00000000	          0.00000000	          4.10457349	          0.00000000	          0.00000000	          0.00000000	          0.00000000	
          0.61600000	        112.99069441	        644.66233166	        -45.68812692	         -0.76180572	          0.00000000	         -0.02801167	          0.00000000	          0.00000000	          0.00000000	          0.00000000	          0.00000000	          0.00000000	          0.00000000	          4.06587721	          0.00000000	          0.00000000	          0.00000000	          0.00000000	
          0.62000000	        120.05207572	        657.02676687	        -45.58965551	         -0.76126795	          0.00000000	         -0.02828062	          0.00000000	          0.00000000	          0.00000000	          0.00000000	          0.00000000	          0.00000000	          0.00000000	          4.07407564	          0.00000000	          0.00000000	          0.00000000	          0.00000000	
          0.62400000	        127.41670400	        668.86803443	        -45.01868676	         -0.76083048	          0.00000000	         -0.02863089	          0.00000000	          0.00000000	          0.00000000	          0.00000000	          0.00000000	          0.00000000	          0.00000000	          4.13124614	          0.00000000	          0.00000000	          0.00000000	          0.00000000	
          0.62800000	        134.99745630	        680.01653277	        -44.02103670	         -0.76047527	          0.00000000	         -0.02904141	          0.00000000	          0.00000000	          0.00000000	          0.00000000	          0.00000000	          0.00000000	          0.00000000	          4.23531057	          0.00000000	          0.00000000	          0.00000000	          0.00000000	
